<?xml version="1.0" encoding="UTF-8" standalone="no"?>
<svg
   xmlns:osb="http://www.openswatchbook.org/uri/2009/osb"
   xmlns:dc="http://purl.org/dc/elements/1.1/"
   xmlns:cc="http://creativecommons.org/ns#"
   xmlns:rdf="http://www.w3.org/1999/02/22-rdf-syntax-ns#"
   xmlns:svg="http://www.w3.org/2000/svg"
   xmlns="http://www.w3.org/2000/svg"
   xmlns:xlink="http://www.w3.org/1999/xlink"
   xmlns:sodipodi="http://sodipodi.sourceforge.net/DTD/sodipodi-0.dtd"
   xmlns:inkscape="http://www.inkscape.org/namespaces/inkscape"
   inkscape:version="1.0 (4035a4f, 2020-05-01)"
   sodipodi:docname="pasted-svg-115x73.svg"
   version="1.1"
   viewBox="0 0 115 73"
   data-name="Layer 2"
   id="Layer_2">
  <metadata
     id="metadata71">
    <rdf:RDF>
      <cc:Work
         rdf:about="">
        <dc:format>image/svg+xml</dc:format>
        <dc:type
           rdf:resource="http://purl.org/dc/dcmitype/StillImage" />
      </cc:Work>
    </rdf:RDF>
  </metadata>
  <sodipodi:namedview
     inkscape:current-layer="layer2"
     inkscape:window-maximized="0"
     inkscape:window-y="23"
     inkscape:window-x="0"
     inkscape:cy="41.166266"
     inkscape:cx="49.930285"
     inkscape:zoom="8.8916606"
     showgrid="false"
     id="namedview69"
     inkscape:window-height="1035"
     inkscape:window-width="1920"
     inkscape:pageshadow="2"
     inkscape:pageopacity="0"
     guidetolerance="10"
     gridtolerance="10"
     objecttolerance="10"
     borderopacity="1"
     bordercolor="#666666"
     pagecolor="#ffffff" />
  <defs
     id="defs12">
    <linearGradient
       osb:paint="solid"
       id="linearGradient983">
      <stop
         id="stop981"
         offset="0"
         style="stop-color:#0e6eab;stop-opacity:1;" />
    </linearGradient>
    <style
       id="style10">.cls-1{fill:none;}.cls-2,.cls-3{fill:#fff;}.cls-2{stroke:#fff;stroke-miterlimit:10;stroke-width:0.5px;}.cls-4{fill:#0e6eab;}</style>
    <linearGradient
       gradientUnits="userSpaceOnUse"
       y2="-124.385"
       x2="299.61"
       y1="-124.385"
       x1="284"
       id="linearGradient985"
       xlink:href="#linearGradient983"
       inkscape:collect="always" />
  </defs>
  <g
     style="display:inline"
     inkscape:label="Layer 1"
     id="layer1"
     inkscape:groupmode="layer">
    <rect
       y="0"
       x="0"
       id="rect14"
       height="73"
       width="115"
       class="cls-1"
       style="display:inline" />
    <path
       id="path16"
       transform="translate(-225.75,160.88)"
       d="m 275.95,-88.59 c -10.25,0 -25.13,-13 -25.13,-33.28 0,-21.11 11.27,-38.28 25.13,-38.28 13.86,0 25.13,17.17 25.13,38.28 0,20.31 -14.88,33.28 -25.13,33.28 z"
       class="cls-2"
       style="display:inline" />
    <path
       id="path20"
       transform="translate(-225.75,160.88)"
       d="m 235.53,-115.64 -0.06,-0.1 a 20.56,20.56 0 0 1 -1.16,-4.14 c -0.49,-2.26 -1.33,-3.09 -3.23,-3.16 h -1.87 v 7.4 h -2.61 v -17.22 h 0.16 a 23.15,23.15 0 0 1 4.27,-0.36 c 2.41,0 4,0.45 5.08,1.45 a 4.42,4.42 0 0 1 1.41,3.39 4.63,4.63 0 0 1 -3,4.4 4.64,4.64 0 0 1 2.26,3.43 27.89,27.89 0 0 0 1.3,4.64 l 0.16,0.29 z m -4.27,-9.47 c 2.22,0 3.65,-1.19 3.65,-3 0,-2.44 -2,-3 -3.73,-3 a 10,10 0 0 0 -2,0.16 v 5.88 z"
       class="cls-3"
       style="display:inline" />
    <path
       style="display:inline;fill:#0e6eab;fill-opacity:1;stroke:#0e6eab;stroke-opacity:1"
       id="path22"
       transform="translate(-225.75,160.88)"
       d="M 226.8,-132.69 A 23,23 0 0 1 231,-133 c 2.36,0 3.88,0.43 4.94,1.39 a 4.25,4.25 0 0 1 1.34,3.24 4.49,4.49 0 0 1 -3.18,4.37 v 0.08 c 1.32,0.46 2.1,1.67 2.51,3.45 a 27.13,27.13 0 0 0 1.32,4.69 h -2.28 a 22.07,22.07 0 0 1 -1.14,-4.08 c -0.51,-2.36 -1.42,-3.24 -3.42,-3.32 H 229 v 7.4 h -2.2 z m 2.21,7.78 h 2.26 c 2.36,0 3.85,-1.29 3.85,-3.24 0,-2.21 -1.6,-3.17 -3.93,-3.19 a 9.07,9.07 0 0 0 -2.18,0.2 z"
       class="cls-3" />
    <polygon
       id="polygon24"
       points="14.53,45.24 14.53,27.76 24.16,27.76 24.16,30.01 17.14,30.01 17.14,35.01 23.78,35.01 23.78,37.23 17.14,37.23 17.14,42.99 24.54,42.99 24.54,45.24 "
       class="cls-3"
       style="display:inline" />
    <path
       style="display:inline;fill:#0e6eab;fill-opacity:1;stroke:#0e6eab;stroke-opacity:1"
       id="path26"
       transform="translate(-225.75,160.88)"
       d="m 249.33,-123.84 h -6.64 v 6.16 h 7.4 v 1.85 h -9.61 v -17.08 h 9.23 v 1.85 h -7 v 5.4 h 6.64 z"
       class="cls-3" />
    <path
       id="path28"
       transform="translate(-225.75,160.88)"
       d="m 260,-115.36 c -4.64,0 -7.88,-3.65 -7.88,-8.87 0,-5.4 3.34,-9.17 8.13,-9.17 4.79,0 7.88,3.55 7.88,8.84 -0.02,6.36 -4.13,9.2 -8.13,9.2 z m 0.15,-15.84 c -3.64,0 -5.27,3.48 -5.27,6.92 0,3.44 1.8,6.72 5.25,6.72 3.64,0 5.27,-3.46 5.27,-6.9 -0.03,-3.24 -1.67,-6.74 -5.27,-6.74 z"
       class="cls-4"
       style="display:inline" />
    <path
       id="path32"
       transform="translate(-225.75,160.88)"
       d="m 274.42,-115.64 -5.71,-17.48 h 2.8 l 2.71,8.55 c 0.69,2.16 1.24,4 1.67,5.71 0.49,-1.86 1.15,-3.82 1.78,-5.69 l 2.94,-8.58 h 2.78 l -6.25,17.48 z"
       class="cls-4"
       style="display:inline" />
    <path
       id="path36"
       transform="translate(-225.75,160.88)"
       d="m 291.67,-115.36 c -4.64,0 -7.88,-3.65 -7.88,-8.87 0,-5.4 3.34,-9.17 8.13,-9.17 4.79,0 7.88,3.55 7.88,8.84 0.01,6.36 -4.08,9.2 -8.13,9.2 z m 0.15,-15.84 c -3.64,0 -5.27,3.48 -5.27,6.92 0,3.24 1.64,6.72 5.25,6.72 3.61,0 5.27,-3.46 5.27,-6.9 0,-3.24 -1.64,-6.74 -5.24,-6.74 z"
       class="cls-4"
       style="display:inline" />
    <polygon
       id="polygon40"
       points="79.87,45.24 79.87,30.04 74.67,30.04 74.67,27.76 87.72,27.76 87.72,30.04 82.5,30.04 82.5,45.24 "
       class="cls-3"
       style="display:inline" />
    <path
       style="display:inline;fill:#0e6eab;fill-opacity:1;stroke:#0e6eab;stroke-opacity:1"
       id="path42"
       transform="translate(-225.75,160.88)"
       d="m 305.82,-131 h -5.2 v -1.87 h 12.65 v 1.87 h -5.22 v 15.21 h -2.23 z"
       class="cls-3" />
    <polygon
       id="polygon44"
       points="89.27,45.24 89.27,27.76 98.9,27.76 98.9,30.01 91.88,30.01 91.88,35.01 98.52,35.01 98.52,37.23 91.88,37.23 91.88,42.99 99.28,42.99 99.28,45.24 "
       class="cls-3"
       style="display:inline" />
    <path
       style="display:inline;fill:#0e6eab;fill-opacity:1;stroke:#0e6eab;stroke-opacity:1"
       id="path46"
       transform="translate(-225.75,160.88)"
       d="m 324.07,-123.84 h -6.64 v 6.16 h 7.4 v 1.85 h -9.61 v -17.08 h 9.23 v 1.85 h -7 v 5.4 h 6.64 z"
       class="cls-3" />
    <path
       id="path48"
       transform="translate(-225.75,160.88)"
       d="m 335.17,-115.38 c -5.25,0 -8.64,-3.47 -8.64,-8.84 0,-5.37 3.67,-9.17 9.12,-9.17 a 9.17,9.17 0 0 1 4.15,0.78 l 0.15,0.08 -0.65,2.18 -0.21,-0.1 a 7.88,7.88 0 0 0 -3.36,-0.69 c -4,0 -6.47,2.62 -6.47,6.85 0,4.23 2.38,6.67 6.36,6.67 a 8.65,8.65 0 0 0 3.51,-0.69 l 0.22,-0.11 0.56,2.14 -0.14,0.07 a 11.07,11.07 0 0 1 -4.6,0.83 z"
       class="cls-3"
       style="display:inline" />
    <path
       style="display:inline;fill:#0e6eab;fill-opacity:1;stroke:#0e6eab;stroke-opacity:1"
       id="path50"
       transform="translate(-225.75,160.88)"
       d="m 339.68,-116.39 a 10.94,10.94 0 0 1 -4.51,0.81 c -4.82,0 -8.44,-3 -8.44,-8.64 0,-5.35 3.63,-9 8.92,-9 a 9.14,9.14 0 0 1 4.05,0.76 l -0.53,1.8 a 8,8 0 0 0 -3.45,-0.71 c -4,0 -6.67,2.56 -6.67,7 0,4.18 2.41,6.87 6.56,6.87 a 8.83,8.83 0 0 0 3.6,-0.71 z"
       class="cls-3" />
    <path
       id="path52"
       transform="translate(-225.75,160.88)"
       d="m 274.67,-137.29 v -0.14 c -4,-13.41 -12.73,-22.07 -22.28,-22.07 -9.55,0 -18.3,8.66 -22.28,22.07 v 0.14 h -0.93 l 0.08,-0.26 c 4.09,-13.89 13.18,-22.86 23.18,-22.86 10,0 19.09,9 23.18,22.86 l 0.08,0.26 z"
       class="cls-3"
       style="display:inline" />
    <path
       style="display:inline;fill:#0e6eab;fill-opacity:1;stroke:#0e6eab;stroke-opacity:1"
       id="path54"
       transform="translate(-225.75,160.88)"
       d="m 229.88,-137.49 c 3.89,-13.09 12.49,-22.22 22.47,-22.22 9.98,0 18.58,9.13 22.47,22.22 h 0.52 c -3.94,-13.37 -12.76,-22.72 -23,-22.72 -10.24,0 -19.05,9.34 -23,22.72 z"
       class="cls-3" />
    <path
       id="path56"
       transform="translate(-225.75,160.88)"
       d="m 252.35,-88.34 c -10.81,0 -20.84,-11.87 -23.93,-22.86 l -0.07,-0.25 h 0.93 v 0.15 c 3.89,13.63 15,22.07 23,22.07 8,0 19.14,-8.44 23,-22.07 v -0.15 h 0.93 l -0.07,0.25 c -2.95,10.99 -12.98,22.86 -23.79,22.86 z"
       class="cls-3"
       style="display:inline" />
    <path
       style="display:inline;fill:#0e6eab;fill-opacity:1;stroke:#0e6eab;stroke-opacity:1"
       id="path58"
       transform="translate(-225.75,160.88)"
       d="M 275.57,-111.26 C 271.63,-97.43 260.5,-89 252.35,-89 c -8.15,0 -19.28,-8.39 -23.22,-22.22 h -0.52 c 4,14.14 15.4,22.72 23.74,22.72 8.34,0 19.76,-8.58 23.74,-22.72 z"
       class="cls-3" />
    <path
       id="path60"
       transform="translate(-225.75,160.88)"
       d="m 336.62,-137.29 v -0.14 c -4,-13.41 -12.73,-22.07 -22.28,-22.07 -9.55,0 -18.34,8.65 -22.34,22.06 v 0.14 h -1 l 0.08,-0.26 c 4.09,-13.89 13.18,-22.86 23.18,-22.86 10,0 19.09,9 23.18,22.86 l 0.08,0.26 z"
       class="cls-3"
       style="display:inline" />
    <path
       style="display:inline;fill:#0e6eab;fill-opacity:1;stroke:#0e6eab;stroke-opacity:1"
       id="path62"
       transform="translate(-225.75,160.88)"
       d="m 291.83,-137.49 c 3.89,-13.09 12.49,-22.22 22.47,-22.22 9.98,0 18.58,9.13 22.47,22.22 h 0.52 c -3.94,-13.37 -12.76,-22.72 -23,-22.72 -10.24,0 -19.05,9.34 -23,22.72 z"
       class="cls-3" />
    <path
       id="path64"
       transform="translate(-225.75,160.88)"
       d="m 314.3,-88.34 c -10.81,0 -20.84,-11.87 -23.93,-22.86 l -0.07,-0.25 h 0.93 v 0.15 c 3.89,13.63 15,22.07 23,22.07 8,0 19.14,-8.44 23,-22.07 v -0.15 h 0.93 l -0.07,0.25 c -2.95,10.99 -12.98,22.86 -23.79,22.86 z"
       class="cls-3"
       style="display:inline" />
    <path
       style="display:inline;fill:#0e6eab;fill-opacity:1;stroke:#0e6eab;stroke-opacity:1"
       id="path66"
       transform="translate(-225.75,160.88)"
       d="M 337.52,-111.26 C 333.58,-97.43 322.45,-89 314.3,-89 c -8.15,0 -19.3,-8.43 -23.22,-22.26 h -0.52 c 4,14.14 15.4,22.72 23.74,22.72 8.34,0 19.76,-8.58 23.74,-22.72 z"
       class="cls-3" />
  </g>
  <g
     style="display:inline"
     inkscape:label="Layer 2"
     id="layer2"
     inkscape:groupmode="layer">
    <path
       transform="translate(-225.75,160.88)"
       style="display:inline;stroke:#0e6eab;stroke-opacity:1"
       id="path18"
       d="m 275.95,-160 c -13.77,0 -24.95,17.09 -24.95,38.12 0,21.03 15.43,33.08 24.93,33.08 9.5,0 24.93,-12.05 24.93,-33.08 0,-21.03 -11.14,-38.12 -24.91,-38.12 z"
       class="cls-2" />
  </g>
  <g
     inkscape:label="Layer 3"
     id="layer3"
     inkscape:groupmode="layer">
    <path
       id="path30"
       transform="translate(-225.75,160.88)"
       d="m 267.91,-124.55 c 0,5.88 -3.57,9 -7.93,9 -4.51,0 -7.68,-3.5 -7.68,-8.67 0,-5.42 3.37,-9 7.93,-9 4.56,0 7.68,3.6 7.68,8.67 z m -13.26,0.28 c 0,3.65 2,6.92 5.45,6.92 3.45,0 5.47,-3.22 5.47,-7.1 0,-3.4 -1.77,-6.94 -5.45,-6.94 -3.68,0 -5.47,3.39 -5.47,7.11 z"
       class="cls-4"
       style="display:inline;stroke:#0e6eab;stroke-opacity:1" />
    <path
       id="path34"
       transform="translate(-225.75,160.88)"
       d="M 274.57,-115.84 269,-132.92 h 2.38 l 2.62,8.42 c 0.74,2.31 1.37,4.38 1.83,6.39 h 0.05 c 0.48,-2 1.19,-4.13 2,-6.36 l 2.89,-8.44 h 2.36 l -6.13,17.07 z"
       class="cls-4"
       style="display:inline;fill:#0e6eab;fill-opacity:1;stroke:#0e6eab;stroke-opacity:1" />
    <path
       style="display:inline;fill:#0e6eab;fill-opacity:1;stroke:url(#linearGradient985)"
       id="path38"
       transform="translate(-225.75,160.88)"
       d="m 299.61,-124.55 c 0,5.88 -3.57,9 -7.93,9 -4.51,0 -7.68,-3.5 -7.68,-8.67 0,-5.42 3.37,-9 7.93,-9 4.56,0 7.68,3.6 7.68,8.67 z m -13.25,0.28 c 0,3.65 2,6.92 5.45,6.92 3.45,0 5.47,-3.22 5.47,-7.1 0,-3.4 -1.77,-6.94 -5.45,-6.94 -3.68,0 -5.48,3.39 -5.48,7.11 z"
       class="cls-4" />
  </g>
</svg>
