<svg id="Layer_2" data-name="Layer 2" xmlns="http://www.w3.org/2000/svg" viewBox="0 0 115 73"><defs><style>.cls-1{fill:none;}.cls-2,.cls-3{fill:#fff;}.cls-2{stroke:#fff;stroke-miterlimit:10;stroke-width:0.5px;}.cls-4{fill:#0e6eab;}</style></defs><rect class="cls-1" width="115" height="73"/><path class="cls-2" d="M275.95-88.59c-10.25,0-25.13-13-25.13-33.28,0-21.11,11.27-38.28,25.13-38.28s25.13,17.17,25.13,38.28C301.08-101.56,286.2-88.59,275.95-88.59Z" transform="translate(-225.75 160.88)"/><path class="cls-2" d="M275.95-160C262.18-160,251-142.91,251-121.88s15.43,33.08,24.93,33.08,24.93-12.05,24.93-33.08S289.72-160,275.95-160Z" transform="translate(-225.75 160.88)"/><path class="cls-3" d="M235.53-115.64l-.06-.1a20.56,20.56,0,0,1-1.16-4.14c-.49-2.26-1.33-3.09-3.23-3.16h-1.87v7.4H226.6v-17.22l.16,0a23.15,23.15,0,0,1,4.27-.36c2.41,0,4,.45,5.08,1.45a4.42,4.42,0,0,1,1.41,3.39,4.63,4.63,0,0,1-3,4.4,4.64,4.64,0,0,1,2.26,3.43,27.89,27.89,0,0,0,1.3,4.64l.16.29Zm-4.27-9.47c2.22,0,3.65-1.19,3.65-3,0-2.44-2-3-3.73-3a10,10,0,0,0-2,.16v5.88Z" transform="translate(-225.75 160.88)"/><path class="cls-3" d="M226.8-132.69A23,23,0,0,1,231-133c2.36,0,3.88.43,4.94,1.39a4.25,4.25,0,0,1,1.34,3.24A4.49,4.49,0,0,1,234.1-124v.08c1.32.46,2.1,1.67,2.51,3.45a27.13,27.13,0,0,0,1.32,4.69h-2.28a22.07,22.07,0,0,1-1.14-4.08c-.51-2.36-1.42-3.24-3.42-3.32H229v7.4H226.8Zm2.21,7.78h2.26c2.36,0,3.85-1.29,3.85-3.24,0-2.21-1.6-3.17-3.93-3.19a9.07,9.07,0,0,0-2.18.2Z" transform="translate(-225.75 160.88)"/><polygon class="cls-3" points="14.53 45.24 14.53 27.76 24.16 27.76 24.16 30.01 17.14 30.01 17.14 35.01 23.78 35.01 23.78 37.23 17.14 37.23 17.14 42.99 24.54 42.99 24.54 45.24 14.53 45.24"/><path class="cls-3" d="M249.33-123.84h-6.64v6.16h7.4v1.85h-9.61v-17.08h9.23v1.85h-7v5.4h6.64Z" transform="translate(-225.75 160.88)"/><path class="cls-4" d="M260-115.36c-4.64,0-7.88-3.65-7.88-8.87,0-5.4,3.34-9.17,8.13-9.17s7.88,3.55,7.88,8.84C268.11-118.2,264-115.36,260-115.36Zm.15-15.84c-3.64,0-5.27,3.48-5.27,6.92s1.8,6.72,5.25,6.72c3.64,0,5.27-3.46,5.27-6.9C265.37-127.7,263.73-131.2,260.13-131.2Z" transform="translate(-225.75 160.88)"/><path class="cls-4" d="M267.91-124.55c0,5.88-3.57,9-7.93,9-4.51,0-7.68-3.5-7.68-8.67,0-5.42,3.37-9,7.93-9S267.91-129.62,267.91-124.55Zm-13.26.28c0,3.65,2,6.92,5.45,6.92s5.47-3.22,5.47-7.1c0-3.4-1.77-6.94-5.45-6.94S254.65-128,254.65-124.28Z" transform="translate(-225.75 160.88)"/><path class="cls-4" d="M274.42-115.64l-5.71-17.48h2.8l2.71,8.55c.69,2.16,1.24,4,1.67,5.71.49-1.86,1.15-3.82,1.78-5.69l2.94-8.58h2.78l-6.25,17.48Z" transform="translate(-225.75 160.88)"/><path class="cls-4" d="M274.57-115.84,269-132.92h2.38L274-124.5c.74,2.31,1.37,4.38,1.83,6.39h.05c.48-2,1.19-4.13,2-6.36l2.89-8.44h2.36L277-115.84Z" transform="translate(-225.75 160.88)"/><path class="cls-4" d="M291.67-115.36c-4.64,0-7.88-3.65-7.88-8.87,0-5.4,3.34-9.17,8.13-9.17s7.88,3.55,7.88,8.84C299.81-118.2,295.72-115.36,291.67-115.36Zm.15-15.84c-3.64,0-5.27,3.48-5.27,6.92,0,3.24,1.64,6.72,5.25,6.72s5.27-3.46,5.27-6.9C297.07-127.7,295.43-131.2,291.83-131.2Z" transform="translate(-225.75 160.88)"/><path class="cls-4" d="M299.61-124.55c0,5.88-3.57,9-7.93,9-4.51,0-7.68-3.5-7.68-8.67,0-5.42,3.37-9,7.93-9S299.61-129.62,299.61-124.55Zm-13.25.28c0,3.65,2,6.92,5.45,6.92s5.47-3.22,5.47-7.1c0-3.4-1.77-6.94-5.45-6.94S286.35-128,286.35-124.28Z" transform="translate(-225.75 160.88)"/><polygon class="cls-3" points="79.87 45.24 79.87 30.04 74.67 30.04 74.67 27.76 87.72 27.76 87.72 30.04 82.5 30.04 82.5 45.24 79.87 45.24"/><path class="cls-3" d="M305.82-131h-5.2v-1.87h12.65V-131h-5.22v15.21h-2.23Z" transform="translate(-225.75 160.88)"/><polygon class="cls-3" points="89.27 45.24 89.27 27.76 98.9 27.76 98.9 30.01 91.88 30.01 91.88 35.01 98.52 35.01 98.52 37.23 91.88 37.23 91.88 42.99 99.28 42.99 99.28 45.24 89.27 45.24"/><path class="cls-3" d="M324.07-123.84h-6.64v6.16h7.4v1.85h-9.61v-17.08h9.23v1.85h-7v5.4h6.64Z" transform="translate(-225.75 160.88)"/><path class="cls-3" d="M335.17-115.38c-5.25,0-8.64-3.47-8.64-8.84s3.67-9.17,9.12-9.17a9.17,9.17,0,0,1,4.15.78l.15.08-.65,2.18-.21-.1a7.88,7.88,0,0,0-3.36-.69c-4,0-6.47,2.62-6.47,6.85s2.38,6.67,6.36,6.67a8.65,8.65,0,0,0,3.51-.69l.22-.11.56,2.14-.14.07A11.07,11.07,0,0,1,335.17-115.38Z" transform="translate(-225.75 160.88)"/><path class="cls-3" d="M339.68-116.39a10.94,10.94,0,0,1-4.51.81c-4.82,0-8.44-3-8.44-8.64,0-5.35,3.63-9,8.92-9a9.14,9.14,0,0,1,4.05.76l-.53,1.8a8,8,0,0,0-3.45-.71c-4,0-6.67,2.56-6.67,7,0,4.18,2.41,6.87,6.56,6.87a8.83,8.83,0,0,0,3.6-.71Z" transform="translate(-225.75 160.88)"/><path class="cls-3" d="M274.67-137.29l0-.14c-4-13.41-12.73-22.07-22.28-22.07s-18.3,8.66-22.28,22.07l0,.14h-.93l.08-.26c4.09-13.89,13.18-22.86,23.18-22.86s19.09,9,23.18,22.86l.08.26Z" transform="translate(-225.75 160.88)"/><path class="cls-3" d="M229.88-137.49c3.89-13.09,12.49-22.22,22.47-22.22s18.58,9.13,22.47,22.22h.52c-3.94-13.37-12.76-22.72-23-22.72s-19.05,9.34-23,22.72Z" transform="translate(-225.75 160.88)"/><path class="cls-3" d="M252.35-88.34c-10.81,0-20.84-11.87-23.93-22.86l-.07-.25h.93l0,.15c3.89,13.63,15,22.07,23,22.07s19.14-8.44,23-22.07l0-.15h.93l-.07.25C273.19-100.21,263.16-88.34,252.35-88.34Z" transform="translate(-225.75 160.88)"/><path class="cls-3" d="M275.57-111.26C271.63-97.43,260.5-89,252.35-89s-19.28-8.39-23.22-22.22h-.52c4,14.14,15.4,22.72,23.74,22.72s19.76-8.58,23.74-22.72Z" transform="translate(-225.75 160.88)"/><path class="cls-3" d="M336.62-137.29l0-.14c-4-13.41-12.73-22.07-22.28-22.07S296-150.85,292-137.44l0,.14H291l.08-.26c4.09-13.89,13.18-22.86,23.18-22.86s19.09,9,23.18,22.86l.08.26Z" transform="translate(-225.75 160.88)"/><path class="cls-3" d="M291.83-137.49c3.89-13.09,12.49-22.22,22.47-22.22s18.58,9.13,22.47,22.22h.52c-3.94-13.37-12.76-22.72-23-22.72s-19.05,9.34-23,22.72Z" transform="translate(-225.75 160.88)"/><path class="cls-3" d="M314.3-88.34c-10.81,0-20.84-11.87-23.93-22.86l-.07-.25h.93l0,.15c3.89,13.63,15,22.07,23,22.07s19.14-8.44,23-22.07l0-.15h.93l-.07.25C335.14-100.21,325.11-88.34,314.3-88.34Z" transform="translate(-225.75 160.88)"/><path class="cls-3" d="M337.52-111.26C333.58-97.43,322.45-89,314.3-89S295-97.43,291.08-111.26h-.52c4,14.14,15.4,22.72,23.74,22.72s19.76-8.58,23.74-22.72Z" transform="translate(-225.75 160.88)"/></svg>